Coordinates
version=1
nRows=60
nColumns=12
inDegrees=yes

Units are S.I. units (second, meters, Newtons, ...)
Angles are in degrees

endheader
time	SC_y	SC_z	SC_x	AC_y	AC_z	AC_x	GH_y	GH_z	GH_yy	EL_x	PS_y
       0.0              -32.44         -2.563          80.49          36.03         0.4189         -14.04         -78.25          68.49          163.5          96.28          14.56
   0.04062              -32.44          -2.56          80.49          36.03         0.4202         -14.04         -78.22          68.49          163.5          96.27          14.58
   0.08124              -32.44         -2.556          80.48          36.03         0.4216         -14.04         -78.18          68.48          163.5          96.27          14.59
    0.1219              -32.44         -2.552          80.48          36.04          0.423         -14.04         -78.14          68.48          163.5          96.26          14.61
    0.1625              -32.45         -2.548          80.48          36.04         0.4246         -14.04          -78.1          68.47          163.5          96.25          14.63
    0.2031              -32.45         -2.544          80.48          36.04         0.4262         -14.03         -78.06          68.47          163.4          96.23          14.64
    0.2437              -32.45         -2.539          80.48          36.05          0.428         -14.03         -78.01          68.46          163.4          96.22          14.66
    0.2844              -32.45         -2.534          80.48          36.05         0.4299         -14.03         -77.96          68.46          163.4          96.21          14.69
     0.325              -32.45         -2.529          80.48          36.05         0.4319         -14.02         -77.91          68.45          163.4           96.2          14.71
    0.3656              -32.45         -2.523          80.47          36.06         0.4341         -14.02         -77.85          68.44          163.4          96.18          14.73
    0.4062              -32.46         -2.517          80.47          36.06         0.4365         -14.02         -77.79          68.44          163.3          96.17          14.76
    0.4468              -32.46          -2.51          80.47          36.07          0.439         -14.01         -77.72          68.43          163.3          96.15          14.79
    0.4875              -32.46         -2.503          80.47          36.07         0.4417         -14.01         -77.65          68.42          163.3          96.13          14.82
    0.5281              -32.46         -2.495          80.46          36.08         0.4446          -14.0         -77.57          68.41          163.3          96.11          14.85
    0.5687              -32.46         -2.487          80.46          36.08         0.4478          -14.0         -77.49          68.41          163.2          96.09          14.88
    0.6093              -32.47         -2.478          80.46          36.09         0.4512         -13.99          -77.4           68.4          163.2          96.07          14.92
    0.6499              -32.47         -2.468          80.45           36.1          0.455         -13.99          -77.3          68.38          163.2          96.04          14.96
    0.6906              -32.47         -2.457          80.45          36.11          0.459         -13.98         -77.19          68.37          163.1          96.01          15.01
    0.7312              -32.48         -2.445          80.45          36.11         0.4635         -13.97         -77.07          68.36          163.1          95.98          15.06
    0.7718              -32.48         -2.432          80.44          36.12         0.4684         -13.97         -76.94          68.35          163.0          95.95          15.11
    0.8124              -32.48         -2.418          80.44          36.13         0.4737         -13.96          -76.8          68.33          163.0          95.91          15.17
    0.8531              -32.49         -2.403          80.43          36.15         0.4796         -13.95         -76.64          68.31          162.9          95.87          15.24
    0.8937              -32.49         -2.385          80.43          36.16         0.4861         -13.94         -76.47          68.29          162.9          95.83          15.31
    0.9343               -32.5         -2.366          80.42          36.17         0.4933         -13.93         -76.28          68.27          162.8          95.78          15.39
    0.9749              -32.51         -2.345          80.41          36.19         0.5013         -13.92         -76.07          68.25          162.7          95.73          15.48
     1.016              -32.51         -2.322           80.4           36.2         0.5102          -13.9         -75.83          68.23          162.6          95.67          15.58
     1.056              -32.52         -2.295          80.39          36.22         0.5202         -13.89         -75.57           68.2          162.5           95.6          15.69
     1.097              -32.53         -2.266          80.38          36.25         0.5315         -13.87         -75.27          68.16          162.4          95.53          15.81
     1.137              -32.54         -2.232          80.37          36.27         0.5442         -13.85         -74.93          68.13          162.3          95.44          15.95
     1.178              -32.55         -2.194          80.36           36.3         0.5586         -13.83         -74.55          68.09          162.2          95.34          16.11
     1.219              -32.57          -2.15          80.34          36.33         0.5751          -13.8         -74.11          68.04          162.0          95.23           16.3
     1.259              -32.58           -2.1          80.32          36.37          0.594         -13.77         -73.61          67.98          161.8           95.1          16.51
       1.3               -32.6         -2.043           80.3          36.41         0.6159         -13.74         -73.03          67.92          161.6          94.96          16.75
     1.341              -32.62         -1.976          80.28          36.46         0.6412          -13.7         -72.36          67.85          161.4          94.79          17.03
     1.381              -32.64         -1.897          80.25          36.51         0.6709         -13.65         -71.57          67.76          161.1          94.59          17.36
     1.422              -32.67         -1.805          80.22          36.58         0.7059          -13.6         -70.65          67.66          160.7          94.35          17.75
     1.462               -32.7         -1.695          80.18          36.66         0.7475         -13.53         -69.54          67.54          160.3          94.07          18.21
     1.503              -32.74         -1.563          80.14          36.76         0.7974         -13.45         -68.22           67.4          159.8          93.74          18.76
     1.544              -32.79         -1.404          80.08          36.87         0.8577         -13.36         -66.62          67.22          159.3          93.33          19.43
     1.584              -32.85         -1.209          80.01          37.02         0.9314         -13.24         -64.67          67.01          158.5          92.83          20.25
     1.625              -32.92        -0.9688          79.93          37.19          1.022          -13.1         -62.26          66.75          157.7          92.22          21.26
     1.665              -33.01        -0.6692          79.82          37.41          1.136         -12.92         -59.26          66.42          156.6          91.46          22.52
     1.706              -33.13        -0.2918          79.69          37.69          1.279          -12.7         -55.47          66.01          155.2           90.5           24.1
     1.747              -33.27          0.188          79.52          38.04           1.46         -12.41         -50.66          65.48          153.4          89.27          26.12
     1.787              -33.46         0.8021          79.31          38.48          1.693         -12.05          -44.5          64.81          151.1          87.71           28.7
     1.828               -33.7           1.59          79.03          39.06          1.991         -11.58         -36.59          63.95          148.3           85.7          32.01
     1.869               -34.0          2.597          78.68          39.79          2.372         -10.99          -26.5          62.85          144.6          83.13          36.24
     1.909              -34.39          3.862          78.23          40.72          2.851         -10.24          -13.8          61.47          139.9          79.91          41.55
      1.95              -34.85          5.405          77.69          41.84          3.435         -9.324           1.67          59.78          134.2          75.98          48.03
      1.99              -35.39          7.193          77.06          43.15          4.111         -8.265           19.6          57.83          127.7          71.42          55.54
     2.031              -35.98          9.129          76.38          44.56          4.844         -7.118          39.02          55.71          120.6          66.49          63.68
     2.072              -36.56          11.06          75.71          45.97          5.577         -5.971          58.44           53.6          113.4          61.55          71.81
     2.112              -37.11          12.85          75.08          47.28          6.254         -4.911          76.37          51.64          106.9           57.0          79.32
     2.153              -37.57          14.39          74.54          48.41          6.837         -3.997          91.84          49.96          101.2          53.07           85.8
     2.194              -37.96          15.66          74.09          49.33          7.316         -3.248          104.5          48.57          96.55          49.84          91.11
     2.234              -38.26          16.67          73.74          50.06          7.697         -2.651          114.6          47.47          92.85          47.28          95.34
     2.275               -38.5          17.46          73.46          50.64          7.996         -2.184          122.5          46.61          89.96          45.27          98.65
     2.315              -38.68          18.07          73.25          51.09          8.228          -1.82          128.7          45.94           87.7           43.7          101.2
     2.356              -38.83          18.55          73.08          51.44           8.41         -1.536          133.5          45.42          85.94          42.48          103.2
     2.397              -38.94          18.93          72.95          51.71          8.553         -1.313          137.3          45.01          84.55          41.52          104.8
